<mxfile host="app.diagrams.net" agent="Mozilla/5.0 (Windows NT 10.0; Win64; x64) AppleWebKit/537.36 (KHTML, like Gecko) Chrome/134.0.0.0 Safari/537.36" version="26.1.1">
  <diagram name="Sivu-1" id="iHHKouJceG0UiuAxufxZ">
    <mxGraphModel dx="2074" dy="1132" grid="0" gridSize="9" guides="1" tooltips="1" connect="1" arrows="1" fold="1" page="1" pageScale="1" pageWidth="1654" pageHeight="1169" math="0" shadow="0">
      <root>
        <mxCell id="0" />
        <mxCell id="1" parent="0" />
        <mxCell id="2YaicK8iOlo2KjXPD142-1" value="Actor" style="shape=umlActor;verticalLabelPosition=bottom;verticalAlign=top;html=1;outlineConnect=0;" parent="1" vertex="1">
          <mxGeometry x="41" y="468" width="50" height="100" as="geometry" />
        </mxCell>
        <mxCell id="2YaicK8iOlo2KjXPD142-2" value="p" style="swimlane;startSize=0;" parent="1" vertex="1">
          <mxGeometry x="167" y="147" width="871" height="839" as="geometry">
            <mxRectangle x="180" y="260" width="50" height="40" as="alternateBounds" />
          </mxGeometry>
        </mxCell>
        <mxCell id="2YaicK8iOlo2KjXPD142-3" value="&lt;font size=&quot;3&quot;&gt;To-Do List&lt;/font&gt;" style="text;html=1;align=center;verticalAlign=middle;whiteSpace=wrap;rounded=0;" parent="2YaicK8iOlo2KjXPD142-2" vertex="1">
          <mxGeometry x="245" y="10" width="90" height="30" as="geometry" />
        </mxCell>
        <mxCell id="2YaicK8iOlo2KjXPD142-4" value="Create Tasks" style="ellipse;whiteSpace=wrap;html=1;" parent="2YaicK8iOlo2KjXPD142-2" vertex="1">
          <mxGeometry x="47" y="169" width="120" height="80" as="geometry" />
        </mxCell>
        <mxCell id="2YaicK8iOlo2KjXPD142-6" value="Settings" style="ellipse;whiteSpace=wrap;html=1;" parent="2YaicK8iOlo2KjXPD142-2" vertex="1">
          <mxGeometry x="68" y="718" width="120" height="80" as="geometry" />
        </mxCell>
        <mxCell id="2YaicK8iOlo2KjXPD142-8" value="Edit Tasks" style="ellipse;whiteSpace=wrap;html=1;" parent="2YaicK8iOlo2KjXPD142-2" vertex="1">
          <mxGeometry x="47" y="321" width="120" height="80" as="geometry" />
        </mxCell>
        <mxCell id="2YaicK8iOlo2KjXPD142-9" value="Delete Tasks" style="ellipse;whiteSpace=wrap;html=1;" parent="2YaicK8iOlo2KjXPD142-2" vertex="1">
          <mxGeometry x="68" y="609" width="120" height="80" as="geometry" />
        </mxCell>
        <mxCell id="2YaicK8iOlo2KjXPD142-13" value="Open New Window" style="ellipse;whiteSpace=wrap;html=1;" parent="2YaicK8iOlo2KjXPD142-2" vertex="1">
          <mxGeometry x="208" y="72" width="120" height="80" as="geometry" />
        </mxCell>
        <mxCell id="2YaicK8iOlo2KjXPD142-15" value="&amp;lt;&amp;lt;include&amp;gt;&amp;gt;" style="endArrow=open;endSize=12;dashed=1;html=1;rounded=0;exitX=1;exitY=0.5;exitDx=0;exitDy=0;entryX=0;entryY=0.5;entryDx=0;entryDy=0;" parent="2YaicK8iOlo2KjXPD142-2" source="2YaicK8iOlo2KjXPD142-4" target="2YaicK8iOlo2KjXPD142-13" edge="1">
          <mxGeometry width="160" relative="1" as="geometry">
            <mxPoint x="206" y="270" as="sourcePoint" />
            <mxPoint x="366" y="270" as="targetPoint" />
            <mxPoint as="offset" />
          </mxGeometry>
        </mxCell>
        <mxCell id="2YaicK8iOlo2KjXPD142-19" value="ReminderTime" style="ellipse;whiteSpace=wrap;html=1;" parent="2YaicK8iOlo2KjXPD142-2" vertex="1">
          <mxGeometry x="686" y="119" width="120" height="80" as="geometry" />
        </mxCell>
        <mxCell id="2YaicK8iOlo2KjXPD142-20" value="&amp;lt;&amp;lt;extend&amp;gt;&amp;gt;" style="html=1;verticalAlign=bottom;endArrow=open;dashed=1;endSize=8;curved=0;rounded=0;exitX=0;exitY=0.5;exitDx=0;exitDy=0;entryX=1;entryY=0.5;entryDx=0;entryDy=0;" parent="2YaicK8iOlo2KjXPD142-2" source="2YaicK8iOlo2KjXPD142-19" target="2YaicK8iOlo2KjXPD142-33" edge="1">
          <mxGeometry relative="1" as="geometry">
            <mxPoint x="326" y="320" as="sourcePoint" />
            <mxPoint x="246" y="320" as="targetPoint" />
            <mxPoint as="offset" />
          </mxGeometry>
        </mxCell>
        <mxCell id="2YaicK8iOlo2KjXPD142-21" value="Task Name" style="ellipse;whiteSpace=wrap;html=1;" parent="2YaicK8iOlo2KjXPD142-2" vertex="1">
          <mxGeometry x="686" y="17" width="120" height="80" as="geometry" />
        </mxCell>
        <mxCell id="2YaicK8iOlo2KjXPD142-22" value="&amp;lt;&amp;lt;include&amp;gt;&amp;gt;" style="endArrow=open;endSize=12;dashed=1;html=1;rounded=0;entryX=0;entryY=0.5;entryDx=0;entryDy=0;exitX=1;exitY=0.5;exitDx=0;exitDy=0;" parent="2YaicK8iOlo2KjXPD142-2" source="2YaicK8iOlo2KjXPD142-33" target="2YaicK8iOlo2KjXPD142-21" edge="1">
          <mxGeometry width="160" relative="1" as="geometry">
            <mxPoint x="206" y="320" as="sourcePoint" />
            <mxPoint x="366" y="320" as="targetPoint" />
          </mxGeometry>
        </mxCell>
        <mxCell id="2YaicK8iOlo2KjXPD142-23" value="Open New Window" style="ellipse;whiteSpace=wrap;html=1;" parent="2YaicK8iOlo2KjXPD142-2" vertex="1">
          <mxGeometry x="208" y="262" width="120" height="80" as="geometry" />
        </mxCell>
        <mxCell id="2YaicK8iOlo2KjXPD142-24" value="&amp;lt;&amp;lt;include&amp;gt;&amp;gt;" style="endArrow=open;endSize=12;dashed=1;html=1;rounded=0;exitX=1;exitY=0.5;exitDx=0;exitDy=0;entryX=0;entryY=0.5;entryDx=0;entryDy=0;" parent="2YaicK8iOlo2KjXPD142-2" source="2YaicK8iOlo2KjXPD142-8" target="2YaicK8iOlo2KjXPD142-23" edge="1">
          <mxGeometry width="160" relative="1" as="geometry">
            <mxPoint x="206" y="320" as="sourcePoint" />
            <mxPoint x="366" y="320" as="targetPoint" />
          </mxGeometry>
        </mxCell>
        <mxCell id="2YaicK8iOlo2KjXPD142-25" value="Edit ReminderTime" style="ellipse;whiteSpace=wrap;html=1;" parent="2YaicK8iOlo2KjXPD142-2" vertex="1">
          <mxGeometry x="409.5" y="272" width="120" height="80" as="geometry" />
        </mxCell>
        <mxCell id="2YaicK8iOlo2KjXPD142-26" value="Edit Task Name" style="ellipse;whiteSpace=wrap;html=1;" parent="2YaicK8iOlo2KjXPD142-2" vertex="1">
          <mxGeometry x="406" y="391" width="120" height="80" as="geometry" />
        </mxCell>
        <mxCell id="2YaicK8iOlo2KjXPD142-29" value="&amp;lt;&amp;lt;extend&amp;gt;&amp;gt;" style="html=1;verticalAlign=bottom;endArrow=open;dashed=1;endSize=8;curved=0;rounded=0;entryX=1;entryY=0.5;entryDx=0;entryDy=0;exitX=0;exitY=0.5;exitDx=0;exitDy=0;" parent="2YaicK8iOlo2KjXPD142-2" source="2YaicK8iOlo2KjXPD142-26" target="2YaicK8iOlo2KjXPD142-23" edge="1">
          <mxGeometry relative="1" as="geometry">
            <mxPoint x="325" y="360" as="sourcePoint" />
            <mxPoint x="245" y="360" as="targetPoint" />
          </mxGeometry>
        </mxCell>
        <mxCell id="2YaicK8iOlo2KjXPD142-27" value="&amp;lt;&amp;lt;extend&amp;gt;&amp;gt;" style="html=1;verticalAlign=bottom;endArrow=open;dashed=1;endSize=8;curved=0;rounded=0;entryX=1;entryY=0.5;entryDx=0;entryDy=0;exitX=0;exitY=0.5;exitDx=0;exitDy=0;" parent="2YaicK8iOlo2KjXPD142-2" source="2YaicK8iOlo2KjXPD142-25" target="2YaicK8iOlo2KjXPD142-23" edge="1">
          <mxGeometry relative="1" as="geometry">
            <mxPoint x="326" y="320" as="sourcePoint" />
            <mxPoint x="246" y="320" as="targetPoint" />
          </mxGeometry>
        </mxCell>
        <mxCell id="2YaicK8iOlo2KjXPD142-30" value="Display Error Message" style="ellipse;whiteSpace=wrap;html=1;" parent="2YaicK8iOlo2KjXPD142-2" vertex="1">
          <mxGeometry x="532" y="205" width="120" height="80" as="geometry" />
        </mxCell>
        <mxCell id="2YaicK8iOlo2KjXPD142-32" value="&amp;lt;&amp;lt;extend&amp;gt;&amp;gt;" style="html=1;verticalAlign=bottom;endArrow=open;dashed=1;endSize=8;curved=0;rounded=0;exitX=0.5;exitY=0;exitDx=0;exitDy=0;entryX=0.917;entryY=0.825;entryDx=0;entryDy=0;entryPerimeter=0;" parent="2YaicK8iOlo2KjXPD142-2" source="2YaicK8iOlo2KjXPD142-30" target="2YaicK8iOlo2KjXPD142-33" edge="1">
          <mxGeometry relative="1" as="geometry">
            <mxPoint x="325" y="380" as="sourcePoint" />
            <mxPoint x="731" y="50" as="targetPoint" />
          </mxGeometry>
        </mxCell>
        <mxCell id="2YaicK8iOlo2KjXPD142-33" value="Add Task" style="ellipse;whiteSpace=wrap;html=1;" parent="2YaicK8iOlo2KjXPD142-2" vertex="1">
          <mxGeometry x="437" y="65" width="120" height="80" as="geometry" />
        </mxCell>
        <mxCell id="2YaicK8iOlo2KjXPD142-36" value="Cancel" style="ellipse;whiteSpace=wrap;html=1;" parent="2YaicK8iOlo2KjXPD142-2" vertex="1">
          <mxGeometry x="206" y="383" width="120" height="80" as="geometry" />
        </mxCell>
        <mxCell id="2YaicK8iOlo2KjXPD142-37" value="&amp;lt;&amp;lt;extend&amp;gt;&amp;gt;" style="html=1;verticalAlign=bottom;endArrow=open;dashed=1;endSize=8;curved=0;rounded=0;entryX=0.5;entryY=1;entryDx=0;entryDy=0;exitX=0.5;exitY=0;exitDx=0;exitDy=0;" parent="2YaicK8iOlo2KjXPD142-2" source="2YaicK8iOlo2KjXPD142-36" target="2YaicK8iOlo2KjXPD142-23" edge="1">
          <mxGeometry x="-0.5185" relative="1" as="geometry">
            <mxPoint x="525" y="441" as="sourcePoint" />
            <mxPoint x="445" y="441" as="targetPoint" />
            <mxPoint as="offset" />
          </mxGeometry>
        </mxCell>
        <mxCell id="2YaicK8iOlo2KjXPD142-38" value="Save Changes" style="ellipse;whiteSpace=wrap;html=1;" parent="2YaicK8iOlo2KjXPD142-2" vertex="1">
          <mxGeometry x="626" y="358" width="120" height="80" as="geometry" />
        </mxCell>
        <mxCell id="2YaicK8iOlo2KjXPD142-43" value="Cancel" style="ellipse;whiteSpace=wrap;html=1;" parent="2YaicK8iOlo2KjXPD142-2" vertex="1">
          <mxGeometry x="364" y="166" width="120" height="80" as="geometry" />
        </mxCell>
        <mxCell id="2YaicK8iOlo2KjXPD142-45" value="&amp;lt;&amp;lt;extend&amp;gt;&amp;gt;" style="html=1;verticalAlign=bottom;endArrow=open;dashed=1;endSize=8;curved=0;rounded=0;entryX=1;entryY=1;entryDx=0;entryDy=0;exitX=0;exitY=0;exitDx=0;exitDy=0;" parent="2YaicK8iOlo2KjXPD142-2" source="2YaicK8iOlo2KjXPD142-43" target="2YaicK8iOlo2KjXPD142-13" edge="1">
          <mxGeometry x="-0.1131" y="7" relative="1" as="geometry">
            <mxPoint x="516" y="500" as="sourcePoint" />
            <mxPoint x="436" y="500" as="targetPoint" />
            <mxPoint as="offset" />
          </mxGeometry>
        </mxCell>
        <mxCell id="2YaicK8iOlo2KjXPD142-46" value="&amp;lt;&amp;lt;extend&amp;gt;&amp;gt;" style="html=1;verticalAlign=bottom;endArrow=open;dashed=1;endSize=8;curved=0;rounded=0;entryX=1;entryY=0.5;entryDx=0;entryDy=0;exitX=0;exitY=0.5;exitDx=0;exitDy=0;" parent="2YaicK8iOlo2KjXPD142-2" source="2YaicK8iOlo2KjXPD142-33" target="2YaicK8iOlo2KjXPD142-13" edge="1">
          <mxGeometry relative="1" as="geometry">
            <mxPoint x="518" y="440" as="sourcePoint" />
            <mxPoint x="438" y="440" as="targetPoint" />
          </mxGeometry>
        </mxCell>
        <mxCell id="2YaicK8iOlo2KjXPD142-47" value="&amp;lt;&amp;lt;extend&amp;gt;&amp;gt;" style="html=1;verticalAlign=bottom;endArrow=open;dashed=1;endSize=8;curved=0;rounded=0;entryX=1;entryY=0.5;entryDx=0;entryDy=0;exitX=0;exitY=0.5;exitDx=0;exitDy=0;" parent="2YaicK8iOlo2KjXPD142-2" source="2YaicK8iOlo2KjXPD142-38" target="2YaicK8iOlo2KjXPD142-25" edge="1">
          <mxGeometry relative="1" as="geometry">
            <mxPoint x="518" y="440" as="sourcePoint" />
            <mxPoint x="438" y="440" as="targetPoint" />
          </mxGeometry>
        </mxCell>
        <mxCell id="2YaicK8iOlo2KjXPD142-49" value="&amp;lt;&amp;lt;extend&amp;gt;&amp;gt;" style="html=1;verticalAlign=bottom;endArrow=open;dashed=1;endSize=8;curved=0;rounded=0;entryX=1;entryY=0.5;entryDx=0;entryDy=0;exitX=0;exitY=0.5;exitDx=0;exitDy=0;" parent="2YaicK8iOlo2KjXPD142-2" source="2YaicK8iOlo2KjXPD142-38" target="2YaicK8iOlo2KjXPD142-26" edge="1">
          <mxGeometry relative="1" as="geometry">
            <mxPoint x="518" y="440" as="sourcePoint" />
            <mxPoint x="438" y="440" as="targetPoint" />
          </mxGeometry>
        </mxCell>
        <mxCell id="2YaicK8iOlo2KjXPD142-51" value="&amp;lt;&amp;lt;extend&amp;gt;&amp;gt;" style="html=1;verticalAlign=bottom;endArrow=open;dashed=1;endSize=8;curved=0;rounded=0;exitX=0.5;exitY=1;exitDx=0;exitDy=0;" parent="2YaicK8iOlo2KjXPD142-2" source="2YaicK8iOlo2KjXPD142-30" target="2YaicK8iOlo2KjXPD142-38" edge="1">
          <mxGeometry relative="1" as="geometry">
            <mxPoint x="518" y="440" as="sourcePoint" />
            <mxPoint x="438" y="440" as="targetPoint" />
          </mxGeometry>
        </mxCell>
        <mxCell id="2YaicK8iOlo2KjXPD142-54" value="Mark as Complete/Incomplete" style="ellipse;whiteSpace=wrap;html=1;" parent="2YaicK8iOlo2KjXPD142-2" vertex="1">
          <mxGeometry x="47" y="485" width="120" height="80" as="geometry" />
        </mxCell>
        <mxCell id="2YaicK8iOlo2KjXPD142-56" value="Task Checkbox" style="ellipse;whiteSpace=wrap;html=1;" parent="2YaicK8iOlo2KjXPD142-2" vertex="1">
          <mxGeometry x="267" y="507" width="120" height="80" as="geometry" />
        </mxCell>
        <mxCell id="2YaicK8iOlo2KjXPD142-57" value="No Mark In Checkbox" style="ellipse;whiteSpace=wrap;html=1;" parent="2YaicK8iOlo2KjXPD142-2" vertex="1">
          <mxGeometry x="482" y="479" width="120" height="80" as="geometry" />
        </mxCell>
        <mxCell id="2YaicK8iOlo2KjXPD142-60" value="Mark In Checkbox" style="ellipse;whiteSpace=wrap;html=1;" parent="2YaicK8iOlo2KjXPD142-2" vertex="1">
          <mxGeometry x="482" y="577" width="120" height="80" as="geometry" />
        </mxCell>
        <mxCell id="2YaicK8iOlo2KjXPD142-61" value="&amp;lt;&amp;lt;include&amp;gt;&amp;gt;" style="endArrow=open;endSize=12;dashed=1;html=1;rounded=0;exitX=1;exitY=0.5;exitDx=0;exitDy=0;entryX=0;entryY=0.5;entryDx=0;entryDy=0;" parent="2YaicK8iOlo2KjXPD142-2" source="2YaicK8iOlo2KjXPD142-54" target="2YaicK8iOlo2KjXPD142-56" edge="1">
          <mxGeometry width="160" relative="1" as="geometry">
            <mxPoint x="407" y="430" as="sourcePoint" />
            <mxPoint x="567" y="430" as="targetPoint" />
          </mxGeometry>
        </mxCell>
        <mxCell id="2YaicK8iOlo2KjXPD142-62" value="&amp;lt;&amp;lt;extend&amp;gt;&amp;gt;" style="html=1;verticalAlign=bottom;endArrow=open;dashed=1;endSize=8;curved=0;rounded=0;entryX=1;entryY=0.5;entryDx=0;entryDy=0;exitX=0;exitY=0.5;exitDx=0;exitDy=0;" parent="2YaicK8iOlo2KjXPD142-2" source="2YaicK8iOlo2KjXPD142-57" target="2YaicK8iOlo2KjXPD142-56" edge="1">
          <mxGeometry relative="1" as="geometry">
            <mxPoint x="527" y="430" as="sourcePoint" />
            <mxPoint x="447" y="430" as="targetPoint" />
          </mxGeometry>
        </mxCell>
        <mxCell id="2YaicK8iOlo2KjXPD142-63" value="&amp;lt;&amp;lt;extend&amp;gt;&amp;gt;" style="html=1;verticalAlign=bottom;endArrow=open;dashed=1;endSize=8;curved=0;rounded=0;entryX=1;entryY=0.5;entryDx=0;entryDy=0;exitX=-0.017;exitY=0.425;exitDx=0;exitDy=0;exitPerimeter=0;" parent="2YaicK8iOlo2KjXPD142-2" source="2YaicK8iOlo2KjXPD142-60" target="2YaicK8iOlo2KjXPD142-56" edge="1">
          <mxGeometry x="-0.0275" y="3" relative="1" as="geometry">
            <mxPoint x="527" y="430" as="sourcePoint" />
            <mxPoint x="447" y="430" as="targetPoint" />
            <mxPoint x="-1" as="offset" />
          </mxGeometry>
        </mxCell>
        <mxCell id="2YaicK8iOlo2KjXPD142-64" value="&amp;lt;&amp;lt;include&amp;gt;&amp;gt;" style="endArrow=open;endSize=12;dashed=1;html=1;rounded=0;exitX=1;exitY=0.5;exitDx=0;exitDy=0;entryX=0;entryY=0.5;entryDx=0;entryDy=0;" parent="2YaicK8iOlo2KjXPD142-2" source="2YaicK8iOlo2KjXPD142-57" target="2YaicK8iOlo2KjXPD142-66" edge="1">
          <mxGeometry width="160" relative="1" as="geometry">
            <mxPoint x="602" y="518.5" as="sourcePoint" />
            <mxPoint x="762" y="518.5" as="targetPoint" />
          </mxGeometry>
        </mxCell>
        <mxCell id="2YaicK8iOlo2KjXPD142-65" value="&amp;lt;&amp;lt;include&amp;gt;&amp;gt;" style="endArrow=open;endSize=12;dashed=1;html=1;rounded=0;entryX=0;entryY=0.5;entryDx=0;entryDy=0;" parent="2YaicK8iOlo2KjXPD142-2" target="2YaicK8iOlo2KjXPD142-67" edge="1">
          <mxGeometry width="160" relative="1" as="geometry">
            <mxPoint x="604" y="616.5" as="sourcePoint" />
            <mxPoint x="704" y="617" as="targetPoint" />
          </mxGeometry>
        </mxCell>
        <mxCell id="2YaicK8iOlo2KjXPD142-66" value="Incomplete Tasklist" style="ellipse;whiteSpace=wrap;html=1;" parent="2YaicK8iOlo2KjXPD142-2" vertex="1">
          <mxGeometry x="697" y="479" width="120" height="80" as="geometry" />
        </mxCell>
        <mxCell id="2YaicK8iOlo2KjXPD142-67" value="Complete Tasklist" style="ellipse;whiteSpace=wrap;html=1;" parent="2YaicK8iOlo2KjXPD142-2" vertex="1">
          <mxGeometry x="697" y="577" width="120" height="80" as="geometry" />
        </mxCell>
        <mxCell id="2YaicK8iOlo2KjXPD142-68" value="Notification" style="ellipse;whiteSpace=wrap;html=1;" parent="2YaicK8iOlo2KjXPD142-2" vertex="1">
          <mxGeometry x="724" y="269" width="120" height="80" as="geometry" />
        </mxCell>
        <mxCell id="2YaicK8iOlo2KjXPD142-69" value="&amp;lt;&amp;lt;include&amp;gt;&amp;gt;" style="endArrow=open;endSize=12;dashed=1;html=1;rounded=0;exitX=0.5;exitY=1;exitDx=0;exitDy=0;entryX=0.5;entryY=0;entryDx=0;entryDy=0;" parent="2YaicK8iOlo2KjXPD142-2" source="2YaicK8iOlo2KjXPD142-19" target="2YaicK8iOlo2KjXPD142-68" edge="1">
          <mxGeometry x="0.0044" width="160" relative="1" as="geometry">
            <mxPoint x="407" y="430" as="sourcePoint" />
            <mxPoint x="567" y="430" as="targetPoint" />
            <mxPoint as="offset" />
          </mxGeometry>
        </mxCell>
        <mxCell id="2YaicK8iOlo2KjXPD142-70" value="Theme Changes" style="ellipse;whiteSpace=wrap;html=1;" parent="2YaicK8iOlo2KjXPD142-2" vertex="1">
          <mxGeometry x="286" y="671" width="120" height="80" as="geometry" />
        </mxCell>
        <mxCell id="a6E1LPGZ_omoe6_mNaca-1" value="&amp;lt;&amp;lt;extend&amp;gt;&amp;gt;" style="html=1;verticalAlign=bottom;endArrow=open;dashed=1;endSize=8;curved=0;rounded=0;entryX=1;entryY=0.5;entryDx=0;entryDy=0;exitX=0;exitY=0.5;exitDx=0;exitDy=0;" edge="1" parent="2YaicK8iOlo2KjXPD142-2" source="2YaicK8iOlo2KjXPD142-70" target="2YaicK8iOlo2KjXPD142-6">
          <mxGeometry relative="1" as="geometry">
            <mxPoint x="699" y="430" as="sourcePoint" />
            <mxPoint x="619" y="430" as="targetPoint" />
          </mxGeometry>
        </mxCell>
        <mxCell id="2YaicK8iOlo2KjXPD142-5" value="" style="endArrow=classic;html=1;rounded=0;entryX=0;entryY=0.5;entryDx=0;entryDy=0;exitX=1;exitY=0.3333333333333333;exitDx=0;exitDy=0;exitPerimeter=0;" parent="1" source="2YaicK8iOlo2KjXPD142-1" target="2YaicK8iOlo2KjXPD142-4" edge="1">
          <mxGeometry width="50" height="50" relative="1" as="geometry">
            <mxPoint x="140" y="470" as="sourcePoint" />
            <mxPoint x="190" y="420" as="targetPoint" />
          </mxGeometry>
        </mxCell>
        <mxCell id="2YaicK8iOlo2KjXPD142-7" value="" style="endArrow=classic;html=1;rounded=0;exitX=1;exitY=0.3333333333333333;exitDx=0;exitDy=0;exitPerimeter=0;entryX=0;entryY=0.5;entryDx=0;entryDy=0;" parent="1" source="2YaicK8iOlo2KjXPD142-1" target="2YaicK8iOlo2KjXPD142-6" edge="1">
          <mxGeometry width="50" height="50" relative="1" as="geometry">
            <mxPoint x="160" y="500" as="sourcePoint" />
            <mxPoint x="210" y="450" as="targetPoint" />
          </mxGeometry>
        </mxCell>
        <mxCell id="2YaicK8iOlo2KjXPD142-10" value="" style="endArrow=classic;html=1;rounded=0;entryX=0;entryY=0.5;entryDx=0;entryDy=0;exitX=1;exitY=0.3333333333333333;exitDx=0;exitDy=0;exitPerimeter=0;" parent="1" source="2YaicK8iOlo2KjXPD142-1" target="2YaicK8iOlo2KjXPD142-8" edge="1">
          <mxGeometry width="50" height="50" relative="1" as="geometry">
            <mxPoint x="100" y="470" as="sourcePoint" />
            <mxPoint x="440" y="550" as="targetPoint" />
          </mxGeometry>
        </mxCell>
        <mxCell id="2YaicK8iOlo2KjXPD142-12" value="" style="endArrow=classic;html=1;rounded=0;entryX=0;entryY=0.5;entryDx=0;entryDy=0;exitX=1;exitY=0.3333333333333333;exitDx=0;exitDy=0;exitPerimeter=0;" parent="1" source="2YaicK8iOlo2KjXPD142-1" target="2YaicK8iOlo2KjXPD142-9" edge="1">
          <mxGeometry width="50" height="50" relative="1" as="geometry">
            <mxPoint x="100" y="470" as="sourcePoint" />
            <mxPoint x="440" y="550" as="targetPoint" />
          </mxGeometry>
        </mxCell>
        <mxCell id="2YaicK8iOlo2KjXPD142-55" value="" style="endArrow=classic;html=1;rounded=0;exitX=1;exitY=0.3333333333333333;exitDx=0;exitDy=0;exitPerimeter=0;entryX=0;entryY=0.5;entryDx=0;entryDy=0;" parent="1" source="2YaicK8iOlo2KjXPD142-1" target="2YaicK8iOlo2KjXPD142-54" edge="1">
          <mxGeometry width="50" height="50" relative="1" as="geometry">
            <mxPoint x="629" y="602" as="sourcePoint" />
            <mxPoint x="679" y="552" as="targetPoint" />
          </mxGeometry>
        </mxCell>
      </root>
    </mxGraphModel>
  </diagram>
</mxfile>
